<?xml version="1.0" encoding="UTF-8" standalone="no"?>
<svg aria-label="Media Luna" viewBox="0 0 74.999992 79.82309">
   <g id="layer1" transform="translate(-53.321415,-86.892022)">
      <path d="m 92.419935,166.71511 -8.717218,-5.74015 3.37828,-1.95653 -1.284018,-2.21704 1.319685,-0.76406 1.283912,2.21694 3.381164,-1.9584 z m 26.507505,-19.17346 c -2.29734,1.52008 -4.80497,2.74822 -7.47021,3.63155 -3.12758,1.03652 -6.4707,1.5975 -9.94382,1.5975 -5.891265,0 -11.407818,-1.61327 -16.131348,-4.42252 -1.670272,-0.99322 -3.241173,-2.13632 -4.694042,-3.41065 l 0.314199,0.54264 -1.319685,0.76406 -1.528534,-2.63916 0.702829,-0.40708 c -1.880977,-1.93407 -3.517028,-4.10812 -4.856813,-6.47236 H 68.20204 v -9.39365 h 2.307541 c -0.162146,-0.81993 -0.293376,-1.65182 -0.391204,-2.49485 -0.140903,-1.21206 -0.21337,-2.43846 -0.21337,-3.67474 0,-6.70388 2.088385,-12.92089 5.649841,-18.03625 3.542182,-5.087307 8.543521,-9.0844 14.398504,-11.386786 v -4.847332 h 9.393862 v 9.393862 h -7.647617 c -1.61564,2.365062 -2.899553,4.975986 -3.784325,7.766266 -0.900957,2.8408 -1.387102,5.86756 -1.387102,9.00905 0,8.22303 3.33292,15.66788 8.721753,21.0564 5.388627,5.38863 12.833477,8.72186 21.056507,8.72186 0.60366,0 1.17784,-0.0158 1.72254,-0.047 0.29719,-0.017 0.59665,-0.0389 0.89848,-0.0654 v -4.18677 h 9.39396 v 9.39387 h -9.39396 z m -36.951899,2.66174 1.319582,-0.76447 1.528534,2.63926 -1.319582,0.76437 z m -28.654126,-51.323286 8.717115,5.740036 -3.378279,1.95665 1.284017,2.21703 -1.319579,0.76406 -1.284018,-2.21693 -3.380856,1.95839 z m 14.266139,23.110046 -1.319889,0.76417 -1.528534,-2.63927 1.319582,-0.76437 z m -3.821847,-6.59832 -1.319583,0.76437 -1.528533,-2.63916 1.319582,-0.76437 z m 8.60939,11.94015 h 5.220805 v 9.39365 h -1.478537 c 2.529586,4.11925 6.034967,7.57629 10.193899,10.04989 4.448603,2.64566 9.647244,4.16513 15.202146,4.16513 3.2753,0 6.42617,-0.52862 9.3716,-1.50462 2.9046,-0.9625 5.61129,-2.36074 8.04243,-4.11688 v -0.75921 c -0.26296,0.0216 -0.52883,0.0398 -0.79829,0.0553 -0.62819,0.036 -1.23629,0.0543 -1.82273,0.0543 -8.72825,0 -16.630485,-3.53806 -22.350426,-9.258 -5.719939,-5.71994 -9.257998,-13.62207 -9.257998,-22.35032 0,-3.33117 0.516351,-6.54307 1.472766,-9.55962 0.894979,-2.82234 2.176624,-5.474187 3.782575,-7.893368 v -1.895821 c -5.226684,2.203217 -9.693942,5.857039 -12.897081,10.457489 -3.354257,4.81764 -5.321105,10.67468 -5.321105,16.99251 0,1.17959 0.06773,2.3364 0.198964,3.46734 0.106072,0.91281 0.253899,1.81428 0.440994,2.70225 z m 3.390751,1.82985 h -2.967383 -2.766368 v 5.73396 h 5.042675 0.691076 z M 91.783493,93.003785 v 1.451943 h 5.733649 v -5.733652 h -5.733649 z m 28.974097,50.548405 v 2.55184 h 5.73365 v -5.73375 h -5.73365 z" style="fill-opacity:1;fill-rule:nonzero;stroke:none;stroke-width:0.35277775" id="path882" />
   </g>
</svg>
