<?xml version="1.0" encoding="UTF-8" standalone="no"?>
<!-- Created with Inkscape (http://www.inkscape.org/) -->

<svg
   xmlns:dc="http://purl.org/dc/elements/1.1/"
   xmlns:cc="http://creativecommons.org/ns#"
   xmlns:rdf="http://www.w3.org/1999/02/22-rdf-syntax-ns#"
   xmlns:svg="http://www.w3.org/2000/svg"
   xmlns="http://www.w3.org/2000/svg"
   xmlns:sodipodi="http://sodipodi.sourceforge.net/DTD/sodipodi-0.dtd"
   xmlns:inkscape="http://www.inkscape.org/namespaces/inkscape"
   width="175.46797mm"
   height="14.993796mm"
   viewBox="0 0 175.46797 14.993796"
   version="1.1"
   id="svg1090"
   inkscape:version="0.92.5 (2060ec1f9f, 2020-04-08)"
   sodipodi:docname="logo-cabecera.svg">
  <defs
     id="defs1084" />
  <sodipodi:namedview
     id="base"
     pagecolor="#ffffff"
     bordercolor="#666666"
     borderopacity="1.0"
     inkscape:pageopacity="0.0"
     inkscape:pageshadow="2"
     inkscape:zoom="0.35"
     inkscape:cx="545.87873"
     inkscape:cy="-120.2367"
     inkscape:document-units="mm"
     inkscape:current-layer="layer1"
     showgrid="false"
     fit-margin-top="0"
     fit-margin-left="0"
     fit-margin-right="0"
     fit-margin-bottom="0"
     inkscape:window-width="1440"
     inkscape:window-height="786"
     inkscape:window-x="0"
     inkscape:window-y="27"
     inkscape:window-maximized="1" />
  <metadata
     id="metadata1087">
    <rdf:RDF>
      <cc:Work
         rdf:about="">
        <dc:format>image/svg+xml</dc:format>
        <dc:type
           rdf:resource="http://purl.org/dc/dcmitype/StillImage" />
        <dc:title></dc:title>
      </cc:Work>
    </rdf:RDF>
  </metadata>
  <g
     inkscape:label="Capa 1"
     inkscape:groupmode="layer"
     id="layer1"
     transform="translate(218.51375,-102.02691)">
    <g
       transform="matrix(0.35277777,0,0,-0.35277777,-237.13103,348.3802)"
       id="g554">
      <text
         transform="matrix(1,0,0,-1,84.744,674.1139)"
         style="font-variant:normal;font-weight:normal;font-size:21.45000076px;font-family:Arial;-inkscape-font-specification:ArialMT;writing-mode:lr-tb;fill:#206a5d;fill-opacity:1;fill-rule:nonzero;stroke:none"
         id="text558">
        <tspan
           x="0 15.4869 27.413099 38.1381 42.900002 54.826199 66.752403 77.477402 89.403603 101.3298 113.256"
           y="0"
           sodipodi:role="line"
           id="tspan556">DesignsLuna</tspan>
      </text>
      <path
         d="m 73.5917,655.8222 -4.6415,3.0563 1.7986,1.0418 -0.6834,1.1803 0.7024,0.4071 0.6837,-1.1804 1.8003,1.0426 z m 14.1139,10.209 c -1.2231,-0.8093 -2.5585,-1.4633 -3.9775,-1.9335 -1.6654,-0.5519 -3.4453,-0.8507 -5.2946,-0.8507 -3.1368,0 -6.0741,0.8589 -8.5892,2.3547 -0.8893,0.529 -1.7258,1.1376 -2.4994,1.8162 l 0.1673,-0.2891 -0.7027,-0.4068 -0.8138,1.4051 0.3741,0.2169 c -1.0015,1.0298 -1.8725,2.1875 -2.586,3.446 h -3.0869 v 5.0021 h 1.2285 c -0.0865,0.4362 -0.1562,0.8793 -0.2084,1.3283 -0.0748,0.6451 -0.1136,1.2982 -0.1136,1.9565 0,3.5696 1.112,6.8799 3.0084,9.6034 1.8859,2.7088 4.549,4.8371 7.6666,6.0631 v 2.5809 h 5.0017 v -5.0017 h -4.072 c -0.8603,-1.2595 -1.544,-2.6496 -2.0151,-4.1352 -0.4796,-1.5126 -0.7384,-3.1243 -0.7384,-4.7971 0,-4.3784 1.7747,-8.3423 4.644,-11.2116 2.8689,-2.8692 6.8331,-4.644 11.2115,-4.644 0.3215,0 0.6271,0.008 0.917,0.0253 0.1585,0.009 0.3178,0.0207 0.4785,0.0348 v 2.2292 h 5.0018 v -5.0017 h -5.0018 z m -19.6752,-1.4173 0.7027,0.407 0.8138,-1.4054 -0.7024,-0.4068 z m -15.257,27.3274 4.6415,-3.0564 -1.7986,-1.0417 0.6834,-1.1806 -0.7024,-0.4068 -0.6837,1.1804 -1.8003,-1.0426 z m 7.596,-12.3052 -0.7027,-0.4068 -0.8138,1.4051 0.7027,0.4071 z m -2.0347,3.5132 -0.7027,-0.4067 -0.8138,1.4051 0.7024,0.407 z m 4.5839,-6.3572 h 2.78 V 671.79 h -0.7875 c 1.347,-2.1931 3.2134,-4.0337 5.4281,-5.3509 2.3686,-1.4085 5.1366,-2.2178 8.0943,-2.2178 1.7439,0 3.4217,0.2814 4.9901,0.8013 1.5463,0.5125 2.9875,1.2569 4.282,2.192 v 0.4043 c -0.14,-0.0117 -0.2817,-0.0213 -0.4249,-0.0295 -0.3347,-0.0193 -0.6585,-0.0289 -0.9706,-0.0289 -4.6474,0 -8.8551,1.8839 -11.9007,4.9294 -3.0455,3.0456 -4.9294,7.253 -4.9294,11.9004 0,1.774 0.275,3.4841 0.7843,5.0902 0.4766,1.5026 1.1588,2.9146 2.0141,4.2026 v 1.0098 c -2.7831,-1.1733 -5.1616,-3.1187 -6.8673,-5.5681 -1.7861,-2.5654 -2.8332,-5.6838 -2.8332,-9.0479 0,-0.6279 0.036,-1.2442 0.106,-1.8463 0.0564,-0.4858 0.1352,-0.966 0.2347,-1.4385 z m 1.8054,-0.9746 h -1.58 -1.4729 v -3.0529 h 2.685 0.3679 z m 8.5286,19.2526 v -0.7732 h 3.0532 v 3.0529 h -3.0532 z m 15.4276,-26.9146 v -1.359 h 3.0529 v 3.0529 h -3.0529 z"
         style="fill:#206a5d;fill-opacity:1;fill-rule:nonzero;stroke:none"
         id="path560"
         inkscape:connector-curvature="0" />
    </g>
    <g
       transform="matrix(0.35277777,0,0,-0.35277777,-237.13103,348.3802)"
       id="g652">
      <text
         transform="matrix(1,0,0,-1,474.7144,676.5463)"
         style="font-variant:normal;font-weight:normal;font-size:14.38799953px;font-family:Arial;-inkscape-font-specification:ArialMT;writing-mode:lr-tb;fill:#206a5d;fill-opacity:1;fill-rule:nonzero;stroke:none"
         id="text656">
        <tspan
           x="0 8.8027 16.802427 23.996428 27.996292 35.996021 40.787224 44.787086 52.786816 60.786545 67.980545"
           y="0"
           sodipodi:role="line"
           id="tspan654">Vector Loco</tspan>
      </text>
      <g
         id="g658">
        <path
           d="m 452.7349,692.7154 c -4.2789,-0.6304 -7.4537,-3.5257 -8.6766,-7.2164 -1.3229,-3.9935 0.003,-9.2849 3.2236,-11.7071 2.0398,-1.5339 5.1165,-2.6187 8.3786,-2.2037 7.5342,0.9584 11.3471,9.0318 7.8293,15.9982 -0.705,1.3961 -1.3799,2.109 -2.3749,2.9534 -1.7651,1.4981 -5.39,2.6161 -8.38,2.1756"
           style="fill:#bfdcae;fill-opacity:1;fill-rule:evenodd;stroke:none"
           id="path660"
           inkscape:connector-curvature="0" />
        <path
           d="m 461.1623,676.1316 c 0.4569,1.1027 -0.6988,3.5484 -1.1977,4.2233 -0.6341,0.8578 -2.0599,2.2842 -3.1683,2.4228 -0.5224,-0.4433 -0.335,-0.5958 -0.979,-1.0026 -1.0404,-0.6577 -2.1481,-0.6812 -3.1975,-0.0354 -0.6069,0.3736 -0.5604,0.5023 -1.0449,1.0295 -0.7118,-0.0329 -1.5193,-0.7656 -1.9621,-1.1109 -1.1359,-0.8864 -2.0336,-2.4826 -2.3202,-4.0003 -0.3257,-1.7248 -0.2554,-1.6282 1.2697,-1.6245 1.6197,0.004 11.9775,-0.1635 12.6,0.0981"
           style="fill:#ffffff;fill-opacity:1;fill-rule:evenodd;stroke:none"
           id="path662"
           inkscape:connector-curvature="0" />
        <path
           d="m 453.7395,689.6458 c -4.684,-0.8235 -3.3024,-7.4328 0.9842,-6.7604 1.6965,0.2659 3.2099,1.8768 2.8692,3.932 -0.2801,1.6891 -1.9092,3.1702 -3.8534,2.8284"
           style="fill:#ffffff;fill-opacity:1;fill-rule:evenodd;stroke:none"
           id="path664"
           inkscape:connector-curvature="0" />
      </g>
    </g>
  </g>
</svg>
