<?xml version="1.0" encoding="UTF-8" standalone="no"?>
<!-- Created with Inkscape (http://www.inkscape.org/) -->

<svg
   xmlns:dc="http://purl.org/dc/elements/1.1/"
   xmlns:cc="http://creativecommons.org/ns#"
   xmlns:rdf="http://www.w3.org/1999/02/22-rdf-syntax-ns#"
   xmlns:svg="http://www.w3.org/2000/svg"
   xmlns="http://www.w3.org/2000/svg"
   xmlns:sodipodi="http://sodipodi.sourceforge.net/DTD/sodipodi-0.dtd"
   xmlns:inkscape="http://www.inkscape.org/namespaces/inkscape"
   width="370.2312mm"
   height="39.042645mm"
   viewBox="0 0 370.2312 39.042645"
   version="1.1"
   id="svg687"
   inkscape:version="0.92.5 (2060ec1f9f, 2020-04-08)"
   sodipodi:docname="sprite.svg">
  <defs
     id="defs681" />
  <sodipodi:namedview
     id="base"
     pagecolor="#ffffff"
     bordercolor="#666666"
     borderopacity="1.0"
     inkscape:pageopacity="0.0"
     inkscape:pageshadow="2"
     inkscape:zoom="0.49497475"
     inkscape:cx="597.4611"
     inkscape:cy="-209.57446"
     inkscape:document-units="mm"
     inkscape:current-layer="layer1"
     showgrid="false"
     inkscape:window-width="1440"
     inkscape:window-height="786"
     inkscape:window-x="0"
     inkscape:window-y="27"
     inkscape:window-maximized="1"
     fit-margin-top="0"
     fit-margin-left="0"
     fit-margin-right="0"
     fit-margin-bottom="0" />
  <metadata
     id="metadata684">
    <rdf:RDF>
      <cc:Work
         rdf:about="">
        <dc:format>image/svg+xml</dc:format>
        <dc:type
           rdf:resource="http://purl.org/dc/dcmitype/StillImage" />
        <dc:title></dc:title>
      </cc:Work>
    </rdf:RDF>
  </metadata>
  <g
     inkscape:label="Capa 1"
     inkscape:groupmode="layer"
     id="layer1"
     transform="translate(138.67743,-133.11395)">
    <path
       inkscape:connector-curvature="0"
       id="path833"
       style="fill:#206a5d;fill-opacity:1;fill-rule:evenodd;stroke:none;stroke-width:0.35277778"
       d="m 114.30122,150.42387 c -0.75939,5.30162 -5.50628,9.87207 -11.6377,9.1164 -5.376842,-0.66261 -9.960202,-5.45163 -9.171722,-11.72283 0.67209,-5.33837 5.59169,-9.90882 11.823472,-9.06672 5.09598,0.6888 9.85723,5.58773 8.98595,11.67315 z m -16.004522,-2.48821 h 4.546952 v -4.54694 c 0,-0.40363 0.33041,-0.73414 0.73403,-0.73414 h 0.78568 c 0.40363,0 0.73404,0.33051 0.73404,0.73414 v 4.54694 h 4.54695 c 0.40364,0 0.73405,0.33051 0.73405,0.73385 v 0.78577 c 0,0.40363 -0.33041,0.73414 -0.73405,0.73414 h -4.54695 v 4.54793 c 0,0.40269 -0.33041,0.73282 -0.73404,0.73282 h -0.78568 c -0.40362,0 -0.73403,-0.33013 -0.73403,-0.73282 v -4.54793 h -4.546952 c -0.40364,0 -0.73405,-0.33051 -0.73405,-0.73414 v -0.78577 c 0,-0.40334 0.33041,-0.73385 0.73405,-0.73385 z m 14.382582,14.67332 c 0.48905,0.23542 0.42147,0.22913 0.82604,0.63811 l 8.12433,8.1468 c 2.78589,2.43788 6.90602,-1.49048 4.63133,-4.4529 -1.09178,-1.42027 -7.22856,-7.03349 -8.88457,-8.99453 1.9104,-3.84093 3.34554,-6.93945 2.24353,-12.02151 -3.2863,-15.16043 -23.432172,-17.40029 -30.164252,-3.84292 -2.83293,5.70428 -1.71703,12.60531 1.87162,17.10059 1.03348,1.29544 2.50711,2.55909 3.88696,3.46575 4.39291,2.88262 9.947242,3.28363 14.873332,1.29247 0.95003,-0.38383 1.73091,-0.95536 2.59187,-1.33186 z"
       sodipodi:nodetypes="cccccscsssscsssscsssscsssscccccccccccc" />
    <path
       inkscape:connector-curvature="0"
       id="path835"
       style="fill:#206a5d;fill-opacity:1;fill-rule:evenodd;stroke:none;stroke-width:0.35277778"
       d="m 69.542528,141.09258 c -0.2403,-0.32845 -0.62141,-0.52191 -1.02691,-0.52191 h -28.57404 c -0.0563,0 -0.11076,0.003 -0.16333,0.0103 l -1.17522,-3.39058 c -0.12391,-0.35003 -0.39237,-0.62882 -0.73686,-0.76492 l -5.92689,-2.32894 c -0.65332,-0.25532 -1.38915,0.0657 -1.64644,0.71724 -0.25626,0.65238 0.0657,1.39114 0.71715,1.64744 l 5.3834,2.11402 6.58743,18.9921 c -0.29005,0.10138 -0.53692,0.32384 -0.64862,0.63642 l -1.90439,5.29135 c -0.11733,0.32487 -0.0657,0.6841 0.13048,0.96661 0.19712,0.28282 0.52097,0.45066 0.86452,0.45066 h 0.97791 c -0.60638,0.67387 -0.97791,1.56299 -0.97791,2.53921 0,2.10078 1.70999,3.81014 3.8098,3.81014 2.10076,0 3.81112,-1.70936 3.81112,-3.81014 0,-0.97622 -0.37265,-1.86534 -0.97979,-2.53921 h 8.307 c -0.60639,0.67387 -0.97885,1.56299 -0.97885,2.53921 0,2.10078 1.70839,3.81014 3.81083,3.81014 2.10076,0 3.80915,-1.70936 3.80915,-3.81014 0,-0.97622 -0.37266,-1.86534 -0.97885,-2.53921 h 1.19014 c 0.58574,0 1.05902,-0.47385 1.05902,-1.05801 0,-0.58648 -0.4731,-1.05866 -1.05902,-1.05866 h -20.29416 l 1.17982,-3.278 c 0.15113,0.0638 0.31727,0.10232 0.48905,0.10232 h 18.6252 c 0.55194,0 1.04212,-0.35567 1.21005,-0.88217 l 5.29131,-16.5105 c 0.12484,-0.3858 0.0563,-0.80896 -0.1821,-1.13484 z m -24.31001,28.05153 c -0.93398,0 -1.69309,-0.75864 -1.69309,-1.69248 0,-0.93314 0.75939,-1.69347 1.69309,-1.69347 0.93398,0 1.69356,0.76033 1.69356,1.69347 0,0.93379 -0.75939,1.69248 -1.69356,1.69248 z m 13.97031,0 c -0.93492,0 -1.69309,-0.75864 -1.69309,-1.69248 0,-0.93314 0.75845,-1.69347 1.69309,-1.69347 0.93304,0 1.69346,0.76033 1.69346,1.69347 0,0.93379 -0.76032,1.69248 -1.69346,1.69248 z m 6.65737,-23.17709 h -6.48081 v -2.85711 h 7.39508 z m -1.86637,5.82085 h -4.61444 v -3.28065 h 5.66585 z m -13.01164,0 v -3.28065 h 5.85733 v 3.28065 z m 5.85733,2.54086 v 2.75247 h -5.85733 v -2.75247 z m -14.31208,-5.82151 h 5.91554 v 3.28065 h -4.77702 z m 8.45475,-2.5402 v -2.85711 h 5.85733 v 2.85711 z m -2.53921,-2.85711 v 2.85711 h -6.79705 l -0.99208,-2.85711 z m -3.8956,11.21882 h 3.8956 v 2.75247 h -2.94191 z m 14.83201,2.75247 v -2.75247 h 3.79986 l -0.88142,2.75247 z"
       sodipodi:nodetypes="csscccccccccccscsssccssscsssccssccccssssssssssccccccccccccccccccccccccccccccccccccccccccccc" />
    <path
       inkscape:connector-curvature="0"
       id="path837"
       style="fill:#206a5d;fill-opacity:1;fill-rule:evenodd;stroke:none;stroke-width:0.35277778"
       d="m -135.36118,152.70214 c -0.0469,-0.50867 2.59713,-3.49091 3.07201,-3.99955 3.60545,-3.86346 9.20381,-6.58678 14.56834,-6.64308 5.50261,-0.0573 10.83137,2.69021 14.64709,6.55202 0.52284,0.52847 3.04328,3.39886 3.095944,3.94325 0.0563,0.61596 -2.474634,3.39456 -3.008834,3.96777 -3.62038,3.88432 -9.19414,6.58778 -14.569,6.64308 -5.49697,0.0573 -10.83794,-2.70048 -14.64615,-6.55102 -0.41771,-0.42222 -3.1257,-3.57536 -3.1594,-3.91247 z m 16.20154,-13.2474 c -4.7894,0.35303 -8.4247,2.14779 -12.21329,4.97311 -1.94578,1.45107 -4.94598,4.47574 -6.35568,6.53215 -0.80069,1.16794 -1.46067,1.31331 -0.39237,2.62828 1.85173,2.28026 1.57229,2.25211 3.94892,4.63801 4.82676,4.84463 11.08566,8.12892 18.10132,7.59213 4.49363,-0.34375 8.61076,-2.34848 12.15398,-5.03405 1.56496,-1.18648 3.11734,-2.70346 4.422094,-4.17076 0.66833,-0.75272 1.34146,-1.55439 1.91865,-2.3786 0.789435,-1.12821 1.495405,-1.35338 0.45807,-2.63392 -1.31893,-1.62658 -2.3816,-3.17997 -3.934914,-4.65291 -5.12714,-4.86152 -10.74399,-8.03487 -18.10696,-7.49344 z m 0.53693,5.28107 c -4.32073,0.65895 -7.606,4.44263 -6.93682,8.90612 0.63643,4.23632 4.58637,7.5471 8.95018,6.89177 4.23728,-0.63548 7.54808,-4.58535 6.89279,-8.9495 -0.64393,-4.28599 -4.54037,-7.51399 -8.90615,-6.84839 z"
       sodipodi:nodetypes="ccccccccccccccccccccccccccc" />
    <path
       inkscape:connector-curvature="0"
       id="path839"
       style="fill:#206a5d;fill-opacity:1;fill-rule:evenodd;stroke:none;stroke-width:0.35277778"
       d="m 162.11332,135.86589 c -1.25041,0 -2.26409,1.01363 -2.26409,2.26502 v 16.55157 l -1.8199,-1.79844 c -0.88986,-0.87851 -2.32332,-0.87025 -3.20286,0.0197 -0.8786,0.88911 -0.87015,2.3233 0.0188,3.20182 l 5.74864,5.68012 c 0.42334,0.41958 0.99574,0.65397 1.59086,0.65397 h 0.009 c 0.60075,-0.003 1.17522,-0.24574 1.59678,-0.67294 l 5.60361,-5.67149 c 0.87954,-0.88977 0.87015,-2.32331 -0.0188,-3.20283 -0.88987,-0.87851 -2.32435,-0.86987 -3.20286,0.0197 l -1.80019,1.8219 v -16.60323 c 0,-1.25138 -1.01461,-2.26502 -2.26502,-2.26502 z m 14.85942,22.131 c -1.25144,0 -2.26502,1.01397 -2.26502,2.26404 v 2.35045 c 0,1.24842 -1.01593,2.26403 -2.26437,2.26403 h -20.66006 c -1.24844,0 -2.26409,-1.01561 -2.26409,-2.26403 v -2.35045 c 0,-1.25007 -1.01395,-2.26404 -2.26436,-2.26404 -1.25107,0 -2.26503,1.01397 -2.26503,2.26404 v 2.35045 c 0,3.74624 3.04722,6.79342 6.79348,6.79342 h 20.66006 c 3.74616,0 6.79338,-3.04718 6.79338,-6.79342 v -2.35045 c 0,-1.25007 -1.01395,-2.26404 -2.26399,-2.26404"
       sodipodi:nodetypes="cscccccsccccccscccsssssssssssssc" />
    <path
       inkscape:connector-curvature="0"
       id="path841"
       style="fill:#206a5d;fill-opacity:1;fill-rule:evenodd;stroke:none;stroke-width:0.35277778"
       d="m 214.42971,141.9327 c 2.14112,-4.28103 4.28139,-6.42121 8.56175,-6.42121 4.72605,0 8.56232,3.83531 8.56232,8.5614 0,8.56172 -8.56232,17.12345 -17.12407,25.68616 -8.56175,-8.56271 -17.12351,-17.12444 -17.12351,-25.68616 0,-4.72609 3.83571,-8.5614 8.56176,-8.5614 4.28139,0 6.42157,2.14018 8.56175,6.42121 z"
       sodipodi:nodetypes="csscssc" />
    <path
       sodipodi:nodetypes="ccccccccccccccccccccccccccscscsccccccccscscsccccccsccccscsccscscsccccccscscscccccccccccscscsccccccccscscsccccccccccscsccccscscccccc"
       d="m -2.3916582,161.30912 v -17.56918 h 2.33157003 v 8.71107 l 8.72696007,-8.71107 h 3.1492601 l -7.3696402,7.12456 7.6887902,10.44462 H 9.0675919 l -6.2523301,-8.86671 -2.87534997,2.78127 v 6.08544 z m -6.3106295,0 h -2.1590403 v -13.74976 c -0.51909,0.49937 -1.20235,0.99409 -2.04444,1.48882 -0.84293,0.49478 -1.60344,0.86724 -2.27432,1.11231 v -2.08555 c 1.20601,-0.56423 2.26202,-1.25138 3.16512,-2.06136 0.90395,-0.80539 1.5461,-1.58652 1.92222,-2.34682 h 1.3904603 z m -21.7445103,-4.6135 2.25742,-0.17084 c 0.16802,1.0994 0.5557,1.92627 1.16133,2.48192 0.60545,0.55204 1.34606,0.83083 2.21697,0.83083 1.05037,0 1.92991,-0.3934 2.64622,-1.17458 0.71151,-0.78445 1.06727,-1.8236 1.06727,-3.11639 0,-1.23053 -0.3398,-2.20012 -1.02325,-2.91174 -0.68242,-0.71133 -1.58617,-1.06729 -2.7108,-1.06729 -0.69932,0 -1.32551,0.15958 -1.8812,0.47882 -0.55194,0.31924 -0.98552,0.73217 -1.30467,1.23915 l -2.03692,-0.29475 1.69346,-9.03029 h 8.71082 v 2.06137 h -6.98947 l -0.9368,4.74032 c 1.05141,-0.74043 2.15538,-1.10833 3.30873,-1.10833 1.53023,0 2.82176,0.53119 3.87307,1.59478 1.05141,1.0633 1.57895,2.42927 1.57895,4.09824 0,1.59082 -0.46277,2.96407 -1.38652,4.12175 -1.12453,1.42391 -2.66302,2.13521 -4.60889,2.13521 -1.59575,0 -2.89582,-0.45037 -3.90583,-1.34577 -1.01002,-0.89577 -1.58721,-2.08125 -1.72989,-3.56245 z m -2.43389,-8.66108 -2.13455,0.17188 c -0.19243,-0.84678 -0.46652,-1.46466 -0.82228,-1.84945 -0.58479,-0.61661 -1.3087,-0.92356 -2.16768,-0.92356 -0.69087,0 -1.30467,0.19243 -1.8322,0.57616 -0.67867,0.49477 -1.20996,1.21463 -1.60702,2.16369 -0.39236,0.9527 -0.59699,2.30642 -0.61295,4.06083 0.51909,-0.78943 1.15739,-1.3779 1.90936,-1.75805 0.75282,-0.38514 1.53755,-0.57747 2.36433,-0.57747 1.43918,0 2.66612,0.53251 3.68074,1.59115 1.00992,1.05965 1.5169,2.42562 1.5169,4.10684 0,1.1037 -0.23749,2.12594 -0.71152,3.075 -0.47872,0.94906 -1.12913,1.67261 -1.96267,2.17594 -0.83073,0.50304 -1.77495,0.75629 -2.82992,0.75629 -1.79578,0 -3.26415,-0.66261 -4.40061,-1.98321 -1.13317,-1.32159 -1.7021,-3.50119 -1.7021,-6.53611 0,-3.39423 0.62985,-5.8639 1.88589,-7.40604 1.09544,-1.34146 2.57198,-2.01169 4.43337,-2.01169 1.38182,0 2.51865,0.3888 3.40279,1.16132 0.8833,0.77253 1.41468,1.8405 1.59021,3.20646 z m -8.83294,7.58155 c 0,0.74437 0.15958,1.45604 0.47403,2.13555 0.31446,0.67847 0.75658,1.1941 1.31696,1.54975 0.56415,0.35567 1.16133,0.53617 1.79578,0.53617 0.91991,0 1.70473,-0.3689 2.35514,-1.10503 0.6505,-0.73583 0.97716,-1.73354 0.97716,-2.99719 0,-1.21463 -0.3229,-2.17197 -0.96496,-2.87134 -0.64205,-0.69941 -1.45964,-1.05138 -2.45379,-1.05138 -0.97322,0 -1.80301,0.352 -2.48251,1.05138 -0.67866,0.69941 -1.01762,1.61532 -1.01762,2.75213 z m -7.99582,5.69303 v -2.45345 h 2.45379 v 2.45345 z m -14.84985,-4.6135 2.25742,-0.17084 c 0.16802,1.09941 0.55569,1.92627 1.16133,2.48192 0.60544,0.55204 1.34615,0.83083 2.21706,0.83083 1.05037,0 1.92991,-0.3934 2.64612,-1.17457 0.71152,-0.78445 1.06728,-1.82361 1.06728,-3.11639 0,-1.23053 -0.3398,-2.20013 -1.02325,-2.91175 -0.68242,-0.71133 -1.58618,-1.06728 -2.71071,-1.06728 -0.69931,0 -1.3256,0.15958 -1.8812,0.47882 -0.55194,0.31924 -0.98552,0.73217 -1.30476,1.23914 l -2.03683,-0.29474 1.69346,-9.03029 h 8.71072 v 2.06137 h -6.98947 l -0.9368,4.74032 c 1.05104,-0.74043 2.15511,-1.10833 3.30874,-1.10833 1.52995,0 2.82166,0.53119 3.87279,1.59479 1.05132,1.06329 1.57885,2.42926 1.57885,4.09823 0,1.59082 -0.46277,2.96407 -1.38652,4.12175 -1.12425,1.42391 -2.66274,2.13521 -4.6088,2.13521 -1.59584,0 -2.89591,-0.45037 -3.90583,-1.34577 -1.01001,-0.89577 -1.58721,-2.08124 -1.72998,-3.56244 z m -2.33515,2.55213 v 2.06137 h -11.6315 c -0.0188,-0.5189 0.0657,-1.01827 0.25344,-1.50075 0.2985,-0.78943 0.77723,-1.57062 1.43514,-2.33556 0.65895,-0.76398 1.59941,-1.6481 2.82269,-2.64981 1.90176,-1.56664 3.19319,-2.80579 3.8681,-3.72173 0.67866,-0.91624 1.01856,-1.78254 1.01856,-2.60113 0,-0.85439 -0.30695,-1.57427 -0.91991,-2.1627 -0.61389,-0.5848 -1.41561,-0.87954 -2.40113,-0.87954 -1.04277,0 -1.87622,0.31061 -2.50241,0.93182 -0.6261,0.61793 -0.94084,1.47657 -0.9491,2.57696 l -2.2087,-0.22087 c 0.15206,-1.65208 0.72466,-2.91175 1.71402,-3.77902 0.99406,-0.86724 2.32322,-1.30006 3.99585,-1.30006 1.68492,0 3.02169,0.46558 4.00354,1.40239 0.98552,0.9368 1.47654,2.09813 1.47654,3.48065 0,0.70298 -0.14362,1.39379 -0.43367,2.07362 -0.2863,0.68251 -0.76502,1.39842 -1.43157,2.15045 -0.67022,0.74907 -1.77851,1.78354 -3.3246,3.0919 -1.2965,1.08813 -2.13099,1.82394 -2.49885,2.21237 -0.36796,0.3888 -0.67116,0.77751 -0.9124,1.1696 z"
       style="fill:#206a5d;fill-opacity:1;fill-rule:evenodd;stroke:none;stroke-width:0.35277778"
       id="path843"
       inkscape:connector-curvature="0" />
  </g>
</svg>
