<?xml version="1.0" encoding="UTF-8" standalone="no"?>
<svg viewBox="0 0 100 100" aria-label="Vistas">
   <g transform="translate(-40.821415,-76.803566)" id="layer1">
      <path id="path582" d="m 90.53305,103.20747 c -0.79644,0.01 -1.60415,0.0437 -2.424351,0.10393 h -5.73e-4 c -8.535628,0.62915 -15.015732,3.82848 -21.767761,8.86414 -3.468689,2.58629 -8.815114,7.97706 -11.328177,11.64226 -1.427096,2.08166 -2.602727,2.34068 -0.699139,4.6844 3.301053,4.06417 2.802277,4.01427 7.038895,8.26672 8.602725,8.63475 19.758435,14.48795 32.262672,13.53121 8.008974,-0.61263 15.346284,-4.18541 21.662134,-8.972 2.78861,-2.11471 5.55632,-4.81879 7.88167,-7.43401 1.19119,-1.34154 2.39111,-2.76996 3.41969,-4.23899 1.40702,-2.01084 2.66553,-2.41268 0.81651,-4.69501 -2.35012,-2.89911 -4.2445,-5.66775 -7.0132,-8.29299 -8.56697,-8.1233 -17.90175,-13.60169 -29.848381,-13.45968 z m 0.140277,4.74643 c 9.806803,-0.10209 19.304793,4.79502 26.105673,11.67802 0.93188,0.94197 5.42447,6.05797 5.51766,7.02828 0.10036,1.0978 -4.41035,6.04964 -5.3623,7.07187 -6.45272,6.92314 -16.38689,11.74154 -25.966514,11.8401 -9.797442,0.10209 -19.317229,-4.81285 -26.104545,-11.67579 -0.744507,-0.75252 -5.571441,-6.37268 -5.631675,-6.97351 -0.0836,-0.90657 4.62936,-6.22176 5.475749,-7.12832 6.426107,-6.88596 16.404572,-11.74031 25.965952,-11.84065 z m 0.554393,4.61565 c -0.710702,-0.006 -1.432753,0.0436 -2.162246,0.15482 -7.701136,1.17451 -13.556623,7.918 -12.363754,15.87342 1.13431,7.55053 8.174464,13.45071 15.95222,12.28327 7.55224,-1.13261 13.45223,-8.17219 12.28496,-15.95054 -1.04011,-6.92291 -6.841053,-12.29712 -13.71118,-12.36097 z" style="fill-opacity:1;fill-rule:evenodd;stroke:none;stroke-width:0.35277772" />
   </g>
</svg>
