<?xml version="1.0" encoding="UTF-8" standalone="no"?>
<svg viewBox="0 0 100 100" aria-label="Ampliar imagen">
   <g transform="translate(-40.821415,-76.803566)" id="layer1">
      <path id="path674" d="m 84.41914,89.327898 c -11.024468,-0.14635 -22.168596,5.42063 -28.025489,17.214812 -5.438881,10.95144 -3.295749,24.2007 3.59395,32.83115 1.984193,2.48696 4.813189,4.91319 7.462374,6.65388 8.433934,5.53438 19.097377,6.30399 28.554876,2.48111 1.823984,-0.73708 3.323273,-1.83397 4.975599,-2.55681 v -5.3e-4 c 0.9391,0.45235 0.8092,0.43989 1.5861,1.22562 l 15.59781,15.64056 c 5.34862,4.68052 13.25778,-2.8614 8.89141,-8.54896 -2.09609,-2.72682 -13.87845,-13.50299 -17.05723,-17.26784 3.66704,-7.3742 6.42298,-13.32347 4.30718,-23.08027 C 110.85536,98.003148 97.724536,89.504517 84.41914,89.327888 Z m -0.331637,10.62581 c 0.901309,0.004 1.820825,0.0668 2.755583,0.193122 9.78365,1.32241 18.923924,10.72752 17.251884,22.41081 -1.45847,10.1785 -10.571193,18.9534 -22.342839,17.50267 -10.322761,-1.27232 -19.122996,-10.46667 -17.609269,-22.5066 1.189693,-9.44826 9.309189,-17.643772 19.944641,-17.600002 z m -0.580367,7.688452 c -0.77492,0 -1.409461,0.63403 -1.409461,1.40895 v 8.7297 h -8.729709 c -0.774921,0 -1.409462,0.63404 -1.409462,1.40895 v 1.50834 c 0,0.77492 0.634541,1.40946 1.409462,1.40946 h 8.729709 v 8.73177 c 0,0.77312 0.634541,1.4074 1.409461,1.4074 h 1.508335 c 0.774924,0 1.408948,-0.63428 1.408948,-1.4074 v -8.73177 h 8.729708 c 0.774921,0 1.409462,-0.63454 1.409462,-1.40946 v -1.50834 c 0,-0.77491 -0.634541,-1.40895 -1.409462,-1.40895 h -8.729708 v -8.7297 c 0,-0.77492 -0.634024,-1.40895 -1.408948,-1.40895 z" style="fill-opacity:1;fill-rule:evenodd;stroke:none;stroke-width:0.35277769" />
   </g>
</svg>
